<svg xmlns="http://www.w3.org/2000/svg" viewBox="0 0 164.25163 40">
  <g id="Layer_2" data-name="Layer 2">
    <g id="Layer_1-2" data-name="Layer 1">
      <g>
        <g>
          <path d="M55.54209,22.74275V30H48.85055V22.65695L41.3645,10H48.425l4.05483,6.91406L56.5626,10h6.46484Z" fill="#fff"/>
          <path d="M80.381,24.9142V30H63.87845V10H80.012v5.0858H70.457v2.34305h8.39286v4.857H70.457V24.9142Z" fill="#fff"/>
          <path d="M82.96048,10H89.652V24.77121h8.96V30H82.96048Z" fill="#fff"/>
          <path d="M114.802,10.91448a7.07554,7.07554,0,0,1,3.148,2.62835,7.21951,7.21951,0,0,1,1.1056,3.99972A7.22188,7.22188,0,0,1,117.95,21.543a7.07107,7.07107,0,0,1-3.148,2.62835,11.635,11.635,0,0,1-4.79144.91448h-2.86412V30H100.4549V10h9.55566A11.635,11.635,0,0,1,114.802,10.91448Zm-3.17523,8.35728a2.21116,2.21116,0,0,0,.68011-1.72921,2.21065,2.21065,0,0,0-.68011-1.72852,2.96337,2.96337,0,0,0-2.04171-.61383h-2.43862v4.6854h2.43862A2.96332,2.96332,0,0,0,111.62677,19.27176Z" fill="#fff"/>
          <path d="M143.75219,10V30h-2.01311V13.99972l-7.79785,13.45773h-.99191l-7.79785-13.37193V30h-2.01312V10h1.72991l8.61956,14.8284L142.02228,10Z" fill="#fff"/>
          <path d="M164.25163,28.17174V30H150.21634V10h13.61049v1.82826H152.31455v7.11426h10.26437v1.80037H152.31455v7.42885Z" fill="#fff"/>
        </g>
        <g>
          <path d="M35.48085,8.22305C35.449,2.82459,26.54156,0,17.74118,0S.03334,2.82459.00151,8.22305H0V22.25882a17.74118,17.74118,0,0,0,35.48236,0V8.22305Z" fill="#1d1d1b"/>
          <path d="M17.74118,4.12586c8.983,0,13.61532,2.89192,13.61532,4.12585,0,.38005-.4426.91742-1.3135,1.47893A30.80328,30.80328,0,0,0,17.74118,7.48557,30.8041,30.8041,0,0,0,5.43936,9.73069c-.8709-.56151-1.3135-1.09893-1.3135-1.479C4.12586,7.01778,8.75818,4.12586,17.74118,4.12586Z" fill="#fff"/>
          <path d="M19.23862,12.34891H16.24374a28.16346,28.16346,0,0,1-8.23337-1.40864A32.15065,32.15065,0,0,1,17.74118,9.5485a32.15189,32.15189,0,0,1,9.731,1.39172A28.16427,28.16427,0,0,1,19.23862,12.34891Z" fill="#c6c6c6"/>
          <path d="M31.3565,22.25882a13.61532,13.61532,0,0,1-27.23064,0V13.727c3.424,1.83367,8.53586,2.77646,13.61532,2.77646S27.93253,15.56063,31.3565,13.727Z" fill="#fff"/>
          <g>
            <path d="M7.23266,27.59385a1.7413,1.7413,0,0,0,.79461.44951,1.74113,1.74113,0,0,0,.44951.7946,1.75943,1.75943,0,0,0,2.48821,0c.94675-.94676.34019-3.45257.03023-3.76253s-2.8158-.91655-3.76256.0302A1.75945,1.75945,0,0,0,7.23266,27.59385Z" fill="#e30613"/>
            <path d="M27.00565,28.83794a1.74121,1.74121,0,0,0,.44951-.79461,1.74121,1.74121,0,0,0,.79461-.44951,1.75944,1.75944,0,0,0,0-2.48821c-.94675-.94675-3.45257-.34019-3.76253-.03023s-.91655,2.8158.0302,3.76256A1.75945,1.75945,0,0,0,27.00565,28.83794Z" fill="#e30613"/>
            <g>
              <circle cx="11.30491" cy="23.06114" r="3.19754" fill="#1d1d1b"/>
              <g>
                <path d="M10.193,21.47957a.90158.90158,0,0,0-.23275.41144.90158.90158,0,0,0-.41144.23275.911.911,0,0,0,0,1.28836c.49021.49022,1.78769.17615,1.94818.01565s.47458-1.458-.01564-1.9482A.911.911,0,0,0,10.193,21.47957Z" fill="#fff"/>
                <path d="M12.47435,24.7618a.49916.49916,0,0,0,.12888-.22782.49916.49916,0,0,0,.22782-.12888.50443.50443,0,0,0,0-.71338c-.27144-.27144-.98987-.09753-1.07874-.00867s-.26277.80731.00866,1.07875A.50444.50444,0,0,0,12.47435,24.7618Z" fill="#fff"/>
              </g>
            </g>
            <path d="M26.07563,22.08709l-2.60767.97425,2.60767.97385v1.28732l-3.79627-1.52665V22.32643l3.79627-1.52665Z" fill="#1d1d1b"/>
            <path d="M18.1453,30.31678c-1.75792,0-2.897-1.25186-2.897-3.19149v-2.488h5.78587v2.56134A2.8203,2.8203,0,0,1,18.1453,30.31678Zm-.01652-1.93964a1.25038,1.25038,0,0,0,1.41948-1.21922v-.6221H16.73389v.71195C16.73389,27.93555,17.27863,28.37714,18.12878,28.37714Z" fill="#1d1d1b"/>
          </g>
        </g>
      </g>
    </g>
  </g>
</svg>
