<svg xmlns="http://www.w3.org/2000/svg" viewBox="0 0 86.56299 73.41504">
  <g id="Layer_2" data-name="Layer 2">
    <g id="Layer_1-2" data-name="Layer 1">
      <g>
        <g>
          <path d="M9.92432,56.2749V61.355H5.24023V56.21484L0,47.355H4.94238l2.83838,4.83984L10.63867,47.355h4.52539Z" fill="#fff"/>
          <path d="M27.31152,57.79492V61.355H15.75977v-14H27.05322V50.915H20.36475v1.64013h5.875v3.39991h-5.875v1.83984Z" fill="#fff"/>
          <path d="M29.11719,47.355h4.68408V57.69482h6.272V61.355h-10.956Z" fill="#fff"/>
          <path d="M51.40625,47.99512A4.95272,4.95272,0,0,1,53.60986,49.835a5.4522,5.4522,0,0,1,0,5.6001,4.94966,4.94966,0,0,1-2.20361,1.83984,8.1444,8.1444,0,0,1-3.354.64014H46.04736V61.355H41.36328v-14h6.689A8.1444,8.1444,0,0,1,51.40625,47.99512Zm-2.22266,5.85009a1.77622,1.77622,0,0,0,0-2.42041,2.07434,2.07434,0,0,0-1.4292-.42968h-1.707V54.2749h1.707A2.07434,2.07434,0,0,0,49.18359,53.84521Z" fill="#fff"/>
          <path d="M71.67139,47.355v14H70.26221V50.15478l-5.4585,9.42041h-.69433l-5.4585-9.36035V61.355H57.2417v-14h1.21094l6.03369,10.37988L70.46045,47.355Z" fill="#fff"/>
          <path d="M86.021,60.07519V61.355H76.19629v-14h9.52734v1.27978H77.665v4.98H84.8501V54.875H77.665v5.20019Z" fill="#fff"/>
          <path d="M8.76807,66.355l-1.38916,7H6.6543l.63525-3.22022H2.94287L2.30762,73.355H1.583l1.38965-7h.72412l-.61524,3.10986H7.42822L8.04346,66.355Z" fill="#fff"/>
          <path d="M10.76807,72.81494a2.14087,2.14087,0,0,1-.66016-1.66992,3.69555,3.69555,0,0,1,.07959-.78027l.794-4.00977h.72412l-.794,3.99023a3.94245,3.94245,0,0,0-.0791.71,1.625,1.625,0,0,0,.47607,1.27,1.97775,1.97775,0,0,0,1.36963.42969,2.26088,2.26088,0,0,0,1.63282-.585,3.39233,3.39233,0,0,0,.85839-1.82471l.794-3.99023h.71435l-.79394,4.04q-.60571,3.01977-3.26514,3.02A2.65237,2.65237,0,0,1,10.76807,72.81494Z" fill="#fff"/>
          <path d="M24.69629,66.355l-1.38916,7h-.5957l-3.32471-5.79981L18.23584,73.355h-.72461l1.38965-7h.59521l3.32471,5.7998,1.15088-5.7998Z" fill="#fff"/>
          <path d="M27.98145,67.4248a3.238,3.238,0,0,0-1.22559,1.27,3.6654,3.6654,0,0,0-.43213,1.77,2.16529,2.16529,0,0,0,.66992,1.66992,2.74108,2.74108,0,0,0,1.93018.62012,2.99033,2.99033,0,0,0,1.77685-.5498L31.167,69.855h.70459l-.53613,2.68994a3.61411,3.61411,0,0,1-1.13623.64014,4.02961,4.02961,0,0,1-1.35449.23,3.90942,3.90942,0,0,1-1.73682-.35987,2.58063,2.58063,0,0,1-1.12158-1.02,2.97108,2.97108,0,0,1-.38672-1.53028,4.37025,4.37025,0,0,1,.521-2.12012,3.90059,3.90059,0,0,1,1.48339-1.5249,4.33135,4.33135,0,0,1,2.23291-.56494,4.09649,4.09649,0,0,1,1.5337.26514,2.48016,2.48016,0,0,1,1.04687.75488l-.51611.4502a2.10285,2.10285,0,0,0-.87354-.61524,3.45331,3.45331,0,0,0-1.2207-.19482A3.51832,3.51832,0,0,0,27.98145,67.4248Z" fill="#fff"/>
          <path d="M39.06152,70.08984a2.7892,2.7892,0,0,1-1.57275.9253L38.79883,73.355h-.794l-1.25049-2.23c-.07324.00683-.19189.00976-.35742.00976H34.42188L33.98535,73.355H33.251l1.38964-7h2.50049a2.86223,2.86223,0,0,1,1.83106.52,1.76307,1.76307,0,0,1,.6499,1.46A2.68116,2.68116,0,0,1,39.06152,70.08984Zm-.81347-.125a1.9092,1.9092,0,0,0,.63965-1.56006,1.24533,1.24533,0,0,0-.46631-1.0498,2.13548,2.13548,0,0,0-1.32959-.35986H35.24561l-.70459,3.5h1.876A2.79934,2.79934,0,0,0,38.24805,69.96484Z" fill="#fff"/>
          <path d="M43.165,70.99512,42.69873,73.355h-.72461l.47656-2.41016L40.585,66.355h.73438l1.60742,3.93994L46.08252,66.355h.78418Z" fill="#fff"/>
          <path d="M57.833,66.355l-1.38965,7h-.70459l1.10156-5.54981-3.59228,4.65967h-.34766l-1.85547-4.75L49.93311,73.355h-.70459l1.38964-7h.59522l2.00488,5.20019L57.1875,66.355Z" fill="#fff"/>
          <path d="M59.82275,72.81494A2.14087,2.14087,0,0,1,59.1626,71.145a3.6949,3.6949,0,0,1,.07959-.78027l.79394-4.00977h.72412l-.79394,3.99023a3.94154,3.94154,0,0,0-.0791.71,1.625,1.625,0,0,0,.47607,1.27,1.97775,1.97775,0,0,0,1.36963.42969,2.26084,2.26084,0,0,0,1.63281-.585,3.39233,3.39233,0,0,0,.8584-1.82471l.79395-3.99023h.71435l-.79394,4.04q-.60571,3.01977-3.26514,3.02A2.65239,2.65239,0,0,1,59.82275,72.81494Z" fill="#fff"/>
          <path d="M68.08447,73.0498a2.58423,2.58423,0,0,1-1.1167-1.02,2.96879,2.96879,0,0,1-.38183-1.5249,4.37035,4.37035,0,0,1,.521-2.12012,3.90069,3.90069,0,0,1,1.4834-1.5249,4.31152,4.31152,0,0,1,2.22315-.56494,3.86337,3.86337,0,0,1,1.47851.26514,2.20775,2.20775,0,0,1,.99268.75488l-.51612.46a2.44081,2.44081,0,0,0-2.01464-.81982,3.41321,3.41321,0,0,0-1.80616.47509,3.26012,3.26012,0,0,0-1.21093,1.27491,3.68361,3.68361,0,0,0-.42676,1.75976A2.16529,2.16529,0,0,0,67.98,72.13476a2.71027,2.71027,0,0,0,1.91064.62012,3.00536,3.00536,0,0,0,2.20313-.83008l.42676.49024a3.00825,3.00825,0,0,1-1.16113.73974,4.37132,4.37132,0,0,1-1.52833.26026A3.87906,3.87906,0,0,1,68.08447,73.0498Z" fill="#fff"/>
          <path d="M80.88623,66.355l-1.38916,7h-.72461l.63525-3.22022H75.061L74.42578,73.355h-.72461l1.38965-7h.72412l-.61523,3.10986h4.34668l.61523-3.10986Z" fill="#fff"/>
          <path d="M83.665,70.52978A2.42115,2.42115,0,0,1,84.10693,70q.24243-.2146.62989-.50488a7.41131,7.41131,0,0,0,.59033-.46,1.643,1.643,0,0,0,.35742-.46,1.30158,1.30158,0,0,0,.144-.62011.89422.89422,0,0,0-.3623-.76026,1.73337,1.73337,0,0,0-1.04688-.27,3.02679,3.02679,0,0,0-1.14648.2002,2.40724,2.40724,0,0,0-.86816.60986l-.46631-.42969a2.84585,2.84585,0,0,1,1.08642-.75,3.9977,3.9977,0,0,1,1.49365-.26025,2.44271,2.44271,0,0,1,1.49854.41016,1.34573,1.34573,0,0,1,.5459,1.14013,1.88674,1.88674,0,0,1-.16895.82959,1.9127,1.9127,0,0,1-.4165.58008,8.2122,8.2122,0,0,1-.665.54,5.40241,5.40241,0,0,0-.80371.68018,1.60568,1.60568,0,0,0-.38721.77978h-.73437A2.09134,2.09134,0,0,1,83.665,70.52978Zm-.61035,2.73a.47263.47263,0,0,1-.144-.34472.52573.52573,0,0,1,.15381-.38526.518.518,0,0,1,.38233-.15478.4851.4851,0,0,1,.352.14014.45541.45541,0,0,1,.144.33984.54256.54256,0,0,1-.15381.39014.509.509,0,0,1-.38183.15966A.47705.47705,0,0,1,83.05469,73.25976Z" fill="#fff"/>
        </g>
        <g>
          <path d="M62.87346,8.80675C62.83937,3.02509,53.29963,0,43.87457,0S24.90977,3.02509,24.87568,8.80675h-.00162V23.83883a19.00051,19.00051,0,0,0,38.001,0V8.80675Z" fill="#1d1d1b"/>
          <path d="M43.87457,4.41872c9.62064,0,14.58178,3.09721,14.58178,4.41873,0,.407-.474.98253-1.40674,1.5839a32.98982,32.98982,0,0,0-13.175-2.40443,32.99065,32.99065,0,0,0-13.175,2.40449c-.93272-.60138-1.40674-1.17694-1.40674-1.584C29.29278,7.51593,34.25392,4.41872,43.87457,4.41872Z" fill="#fff"/>
          <path d="M45.4783,13.22548H42.27084A30.16238,30.16238,0,0,1,33.453,11.71684a34.43313,34.43313,0,0,1,10.42154-1.49056,34.43426,34.43426,0,0,1,10.42175,1.49051A30.16347,30.16347,0,0,1,45.4783,13.22548Z" fill="#c6c6c6"/>
          <path d="M58.45635,23.83883a14.58179,14.58179,0,0,1-29.16357,0V14.70134c3.667,1.96383,9.14177,2.97355,14.58179,2.97355s10.91476-1.00972,14.58178-2.97355Z" fill="#fff"/>
          <g>
            <path d="M32.62012,29.55255a1.86483,1.86483,0,0,0,.851.48142,1.86483,1.86483,0,0,0,.48142.851,1.88431,1.88431,0,0,0,2.66483,0c1.014-1.014.36434-3.69764.03237-4.02961s-3.01567-.98161-4.02963.03235A1.88432,1.88432,0,0,0,32.62012,29.55255Z" fill="#e30613"/>
            <path d="M53.79666,30.885a1.86478,1.86478,0,0,0,.48142-.851,1.86474,1.86474,0,0,0,.851-.48142,1.88431,1.88431,0,0,0,0-2.66483c-1.014-1.014-3.69764-.36434-4.0296-.03237s-.98162,3.01567.03234,4.02963A1.88432,1.88432,0,0,0,53.79666,30.885Z" fill="#e30613"/>
            <g>
              <circle cx="36.98144" cy="24.6981" r="3.42451" fill="#1d1d1b"/>
              <g>
                <path d="M35.79058,23.00427a.9655.9655,0,0,0-.24927.44064.96555.96555,0,0,0-.44064.24927.97567.97567,0,0,0,0,1.37981c.525.525,1.91459.18865,2.08648.01677s.50826-1.56148-.01675-2.08649A.97567.97567,0,0,0,35.79058,23.00427Z" fill="#fff"/>
                <path d="M38.23388,26.51947a.53463.53463,0,0,0,.138-.244.53475.53475,0,0,0,.244-.138.54025.54025,0,0,0,0-.764c-.29071-.29071-1.06013-.10446-1.15531-.00928s-.28143.86461.00928,1.15531A.54022.54022,0,0,0,38.23388,26.51947Z" fill="#fff"/>
              </g>
            </g>
            <path d="M52.80062,23.65491l-2.79277,1.04341,2.79277,1.043V27.12l-4.06574-1.635V23.91123l4.06574-1.635Z" fill="#1d1d1b"/>
            <path d="M44.30738,32.46877c-1.88271,0-3.1026-1.34072-3.1026-3.418V26.38612h6.19657v2.74315A3.0205,3.0205,0,0,1,44.30738,32.46877Zm-.01769-2.07732a1.33914,1.33914,0,0,0,1.52023-1.30577v-.66626H42.79578v.76249C42.79578,29.91851,43.37919,30.39145,44.28969,30.39145Z" fill="#1d1d1b"/>
          </g>
        </g>
      </g>
    </g>
  </g>
</svg>
